<?xml version="1.0" encoding="UTF-8"?>
<!-- The Best Svg Icon site in the world: iconSvg.co, Visit us! https://iconsvg.co -->
<svg fill="#000000" width="800px" height="800px" version="1.1" viewBox="144 144 512 512" xmlns="http://www.w3.org/2000/svg">
 <path d="m628.39 180c-3.7773-6.7148-10.703-10.914-18.473-10.914h-419.84c-7.7656 0-14.695 4.1992-18.473 10.914-3.5703 6.7188-3.3594 14.906 0.83984 21.414l143.59 225.66v182.84c0 11.547 9.4453 20.992 20.992 20.992h62.977c5.668 0 10.914-2.3086 14.906-6.0859l62.977-62.977c3.7734-3.9883 6.082-9.2383 6.082-14.906v-119.86l143.59-225.66c4.1992-6.5078 4.4102-14.695 0.83984-21.414zm-183.05 229.66c-2.3086 3.3555-3.3555 7.3477-3.3555 11.336v117.34l-50.594 50.59h-33.375v-167.94c0-3.9883-1.0508-7.9766-3.3594-11.336l-126.37-198.58h343.43z"/>
</svg>