<?xml version="1.0" encoding="UTF-8"?>
<!-- The Best Svg Icon site in the world: iconSvg.co, Visit us! https://iconsvg.co -->
<svg fill="#000000" width="800px" height="800px" version="1.1" viewBox="144 144 512 512" xmlns="http://www.w3.org/2000/svg">
 <g>
  <path d="m425.27 234.94c-7.8711-1.5312-16.078-2.2656-25.043-2.2656-0.10547 0.019531-0.25 0.019531-0.39844 0-9.0039 0-17.191 0.73438-25.086 2.2656-49.668 9.6562-89.09 49.668-98.141 99.566-5.2461 29.055-0.77734 57.812 12.91 83.129l29.137 56.551c6.0234 11.754 10.223 24.016 12.492 36.484 1.5312 8.2695 2.3711 16.5 2.5391 24.434 0.10547 4.8281 1.6172 11.441 10.684 19.754 1.6602-0.37891 3.2109-1.0273 4.9766-1.0273h19.355v-88.02c0-4.8086 3.9062-8.6914 8.7109-8.6914 4.8086 0 8.7109 3.9062 8.7109 8.6914v88.02h27.816v-88.02c0-4.8086 3.9062-8.6914 8.7109-8.6914 4.8086 0 8.7109 3.9062 8.7109 8.6914v88.02h19.355c1.7617 0 3.3359 0.62891 4.9961 1.0078 9.0469-8.332 10.559-14.926 10.645-19.734 0.16797-7.7891 1.0273-16.016 2.5391-24.457 2.2461-12.492 6.4453-24.77 12.512-36.484l29.012-56.383c13.77-25.504 18.262-54.242 12.992-83.277-9.0469-49.895-48.469-89.906-98.137-99.562zm45.238 85.395-88.648 88.293c-1.6367 1.6367-3.8398 2.5391-6.1289 2.5391h-0.27344c-2.3711-0.082031-4.6172-1.1328-6.2148-2.918l-40.094-45.152c-3.1914-3.5898-2.875-9.0898 0.71484-12.281 3.5898-3.1914 9.0898-2.8555 12.281 0.71484l33.984 38.27 82.141-81.785c3.4023-3.4023 8.9023-3.4023 12.301 0.019531 3.3594 3.4219 3.3359 8.9219-0.0625 12.301z"/>
  <path d="m449.66 603.01h-99.312c-3.9688 0-7.1992 3.2344-7.1992 7.1992 0 3.9688 3.2344 7.1992 7.1992 7.1992h99.312c3.9688 0 7.1992-3.2344 7.1992-7.1992 0.003907-3.9648-3.2305-7.1992-7.1992-7.1992z"/>
  <path d="m434.41 634.82h-68.789c-3.9062 0-7.1992 3.2969-7.1992 7.1797 0 3.9688 3.2344 7.1992 7.1992 7.1992h68.789c3.9688 0 7.1992-3.2344 7.1992-7.1992 0-3.8828-3.2969-7.1797-7.1992-7.1797z"/>
  <path d="m450.7 571.23h-101.35c-3.4219 0-6.1719 2.7695-6.1719 6.1914 0 5.4375 2.75 8.1875 6.1719 8.1875h101.35c3.3594 0 6.1719-2.832 6.1719-6.1719 0-5.3711-2.8359-8.207-6.1719-8.207z"/>
  <path d="m400.02 197.55c4.8086 0 8.7109-3.9062 8.7109-8.6914v-29.367c0-4.8086-3.9062-8.6914-8.7109-8.6914-4.8086 0-8.7109 3.9062-8.7109 8.6914v29.367c0 4.8086 3.9023 8.6914 8.7109 8.6914z"/>
  <path d="m307.49 215.96c1.6133 2.793 4.5547 4.3672 7.5352 4.3672 1.4922 0 2.9805-0.37891 4.3438-1.1562 4.1797-2.4141 5.6055-7.7227 3.1914-11.879l-14.672-25.445c-2.4141-4.1758-7.7461-5.5625-11.883-3.1914-4.1562 2.3945-5.582 7.7266-3.1914 11.883z"/>
  <path d="m223.04 266.68 25.441 14.672c1.3867 0.79688 2.875 1.1758 4.3438 1.1758 3 0 5.918-1.5547 7.5352-4.3438 2.3945-4.1562 0.98828-9.4883-3.1914-11.883l-25.418-14.676c-4.1562-2.4141-9.4883-0.98438-11.879 3.1719-2.4141 4.1562-0.98828 9.4883 3.168 11.883z"/>
  <path d="m238.76 358.81c0-4.8086-3.9062-8.6914-8.7109-8.6914h-29.367c-4.8086 0-8.7109 3.9062-8.7109 8.6914s3.9062 8.6914 8.7109 8.6914h29.367c4.7852 0 8.7109-3.9062 8.7109-8.6914z"/>
  <path d="m248.48 436.25-25.441 14.695c-4.1562 2.3945-5.582 7.7266-3.1914 11.883 1.6172 2.7695 4.5352 4.3438 7.5352 4.3438 1.4922 0 2.9805-0.37891 4.3438-1.1758l25.441-14.672c4.1562-2.3945 5.582-7.7266 3.1914-11.883-2.4102-4.1758-7.7227-5.582-11.879-3.1914z"/>
  <path d="m576.96 450.95-25.422-14.672c-4.1562-2.3945-9.4688-0.98828-11.883 3.168-2.3945 4.1562-0.98828 9.4883 3.1914 11.883l25.422 14.672c1.3867 0.79688 2.875 1.1758 4.3438 1.1758 3 0 5.918-1.5547 7.5352-4.3438 2.3984-4.1797 0.96875-9.4883-3.1875-11.883z"/>
  <path d="m599.32 350.1h-29.367c-4.8086 0-8.7109 3.9062-8.7109 8.6914 0 4.7852 3.9062 8.6914 8.7109 8.6914h29.367c4.8086 0 8.7109-3.9062 8.7109-8.6914 0.003906-4.7891-3.9219-8.6914-8.7109-8.6914z"/>
  <path d="m547.2 282.53c1.4922 0 2.9805-0.37891 4.3438-1.1758l25.422-14.672c4.1562-2.3945 5.582-7.7266 3.1914-11.883-2.4141-4.1562-7.7266-5.582-11.883-3.168l-25.422 14.672c-4.1562 2.3945-5.582 7.7266-3.1914 11.883 1.6172 2.7891 4.5352 4.3438 7.5391 4.3438z"/>
  <path d="m480.61 219.15c1.3867 0.79688 2.875 1.1758 4.3438 1.1758 3 0 5.918-1.5547 7.5352-4.3438l14.695-25.441c2.3945-4.1562 0.98828-9.4883-3.1914-11.883-4.1758-2.4141-9.4688-1.0078-11.883 3.168l-14.695 25.441c-2.3906 4.1797-0.96094 9.4883 3.1953 11.883z"/>
 </g>
</svg>