<?xml version="1.0" encoding="UTF-8"?>
<!-- The Best Svg Icon site in the world: iconSvg.co, Visit us! https://iconsvg.co -->
<svg fill="#000000" width="800px" height="800px" version="1.1" viewBox="144 144 512 512" xmlns="http://www.w3.org/2000/svg">
 <path d="m577.43 222.57c-47.391-47.391-110.4-73.492-177.43-73.492s-130.04 26.102-177.43 73.492c-47.391 47.395-73.492 110.41-73.492 177.43s26.102 130.04 73.492 177.43c47.395 47.391 110.41 73.488 177.43 73.488s130.04-26.102 177.43-73.492c47.391-47.391 73.488-110.4 73.488-177.43s-26.098-130.04-73.492-177.43zm-11.133 11.133c42.559 42.559 66.781 98.559 68.738 158.42h-54.148c-0.70312-16.344-3.5938-32.133-8.3711-47.086 5.8281-5.0508 9.5273-12.504 9.5273-20.809 0-15.191-12.359-27.551-27.551-27.551-1.8906 0-3.7344 0.19141-5.5195 0.55469-4.7461-6.8594-9.9531-13.371-15.574-19.496l16.203-16.199c3.0742-3.0742 3.0742-8.0586 0-11.133-3.0742-3.0742-8.0586-3.0742-11.133 0l-16.203 16.195c-25.926-23.777-58.777-40.105-95.141-45.594-1.7969-10.121-9.1328-18.355-18.758-21.43v-34.594c59.68 2.0742 115.49 26.277 157.93 68.719zm-47.23 305.04c0 6.5117-5.2969 11.809-11.809 11.809-6.5117 0-11.809-5.2969-11.809-11.809 0-6.5117 5.2969-11.809 11.809-11.809 6.5117 0 11.809 5.2969 11.809 11.809zm0.45312-24.664c-3.6953-1.8438-7.8555-2.8867-12.262-2.8867-15.191 0-27.551 12.359-27.551 27.551 0 1.9492 0.20703 3.8555 0.59375 5.6914-21.5 12.004-45.93 19.363-71.934 20.664v-51.641c56.242-4.1016 101.27-49.277 105.13-105.59h17.375v13.777c0 4.3477 3.5234 7.8711 7.8711 7.8711 4.3477 0 7.8711-3.5234 7.8711-7.8711v-13.777h18.5c-1.9336 41.086-18.938 78.293-45.598 106.21zm-217.22-121.95c3.8281-47.949 42.312-86.285 90.328-89.879v48.113c-21.613 3.2031-38.773 20.223-42.184 41.766zm-67.422 0c3.7227-78.992 63.156-143.64 139.79-155.47 3.2656 7.6133 9.8672 13.465 17.953 15.719v34.105c-56.699 3.6445-102.22 49.016-106.11 105.65zm165.13-178.1c6.5117 0 11.809 5.2969 11.809 11.809s-5.2969 11.809-11.809 11.809-11.809-5.2969-11.809-11.809 5.2969-11.809 11.809-11.809zm25.336 22.625c32.738 5.0586 62.332 19.758 85.785 41.098l-36.477 36.477c-18.023-15.703-41.02-25.84-66.281-27.684v-34.457c7.6406-2.4414 13.84-8.1289 16.973-15.434zm24.223 155.48c-1.2617-7.9727-4.4102-15.324-8.9688-21.586l34.031-34.031c12.988 15.242 21.398 34.496 23.086 55.617zm-20.102-32.719c-6.1328-4.4648-13.312-7.5703-21.094-8.8828v-48.191c20.93 1.7773 40 10.16 55.125 23.047zm-21.094 7.1836c3.4961 0.875 6.7812 2.2891 9.7656 4.1445l-9.7656 9.7656zm0 41.281h25.156c-2.9375 12.512-12.715 22.418-25.156 25.535zm10.641-15.746 10.258-10.258c1.9414 3.1211 3.3945 6.5781 4.2578 10.258zm-26.387-25.762v25.762h-26.141c3.0156-12.84 13.23-22.93 26.141-25.762zm0 41.508v25.762c-12.91-2.8281-23.125-12.922-26.141-25.762zm56.941 0h15.383v13.777c0 4.3477 3.5234 7.8711 7.8711 7.8711s7.8711-3.5234 7.8711-7.8711v-13.777h17.02c-3.8047 47.621-41.785 85.754-89.344 89.793v-48.191c21.148-3.5625 37.844-20.387 41.199-41.602zm63.938-15.746c-1.75-25.457-11.91-48.637-27.719-66.773l36.48-36.48c4.5664 5.0234 8.8281 10.324 12.762 15.883-4.9922 4.9883-8.0859 11.879-8.0859 19.477 0 15.191 12.359 27.551 27.551 27.551 1.207 0 2.3945-0.085938 3.5625-0.23828 3.9766 12.93 6.4102 26.527 7.0742 40.582zm40.992-56.086c-6.5117 0-11.809-5.2969-11.809-11.809s5.2969-11.809 11.809-11.809 11.809 5.2969 11.809 11.809-5.2969 11.809-11.809 11.809zm-320.79-102.34c42.676-42.676 98.863-66.914 158.91-68.754v34.34c-10.102 2.8125-17.879 11.246-19.738 21.707-84.48 12.746-150.02 84.059-153.76 171.13h-54.152c1.957-59.863 26.18-115.86 68.738-158.42zm158.91 401.34c-60.051-1.8398-116.24-26.082-158.91-68.754-42.559-42.559-66.781-98.555-68.738-158.42h54.156c4.0312 93.746 79.684 169.24 173.5 173.02zm0-69.91c-85.129-3.7578-153.73-72.199-157.74-157.27h51.645c1.3359 19.426 7.5508 37.531 17.457 53.074-2.7461 4.2812-4.3477 9.3672-4.3477 14.82 0 15.191 12.359 27.551 27.551 27.551 5.8477 0 11.273-1.8359 15.742-4.957 14.785 8.6133 31.672 14.004 49.695 15.164zm-65.434-77.562c-6.5117 0-11.809-5.2969-11.809-11.809s5.2969-11.809 11.809-11.809c6.5117 0 11.809 5.2969 11.809 11.809s-5.2969 11.809-11.809 11.809zm25.621-1.6953c1.2383-3.1328 1.9297-6.543 1.9297-10.113 0-15.191-12.359-27.551-27.551-27.551-3.9531 0-7.7148 0.84375-11.117 2.3516-7.6562-12.656-12.539-27.168-13.781-42.695h48.148c3.4102 21.543 20.57 38.566 42.184 41.766v48.113c-14.348-1.0742-27.836-5.2617-39.812-11.871zm213.49 80.414c-42.441 42.441-98.25 66.648-157.93 68.719v-54.156c28.73-1.3125 55.723-9.375 79.461-22.598 4.9844 4.9609 11.855 8.0391 19.43 8.0391 15.191 0 27.551-12.359 27.551-27.551 0-5.0781-1.3867-9.8359-3.793-13.926 29.297-30.734 47.914-71.715 49.859-116.95h20.848v13.777c0 4.3477 3.5234 7.8711 7.8711 7.8711s7.8711-3.5234 7.8711-7.8711v-13.777h17.566c-1.9531 59.867-26.176 115.86-68.734 158.42z"/>
</svg>